<svg width="200" height="60" viewBox="0 0 200 60" xmlns="http://www.w3.org/2000/svg" role="img" aria-label="Flores logo">
  <rect width="200" height="60" rx="12" fill="#0f9d58"/>
  <path d="M38 42c10-2 18-12 18-22 0-8-6-14-12-14-7 0-12 6-12 13 0 4 2 8 4 10-6-1-12-5-15-10-5 4-8 11-8 18 0 12 9 22 20 22 7 0 13-4 16-9 3 4 9 7 14 7 10 0 18-9 18-20 0-7-3-13-7-17-2 4-6 7-10 8 2-2 3-5 3-8 0-7-5-12-11-12-6 0-11 5-11 12 0 4 2 8 5 10-4 2-8 3-12 2z" fill="#e6f4ea" opacity="0.9"/>
  <text x="90" y="38" font-family="Inter, Arial, sans-serif" font-size="22" font-weight="700" fill="#ffffff">Flores</text>
  <text x="90" y="50" font-family="Inter, Arial, sans-serif" font-size="10" fill="#e6f4ea">Eco-Friendly Care</text>
</svg>

